<svg id="Capa_1" data-name="Capa 1" xmlns="http://www.w3.org/2000/svg" viewBox="0 0 432.03 101.62"><defs><style>.cls-1{fill:#c44536;}.cls-2{fill:#283d3b;}.cls-3{fill:#197278;}</style></defs><path class="cls-1" d="M58.35,37.11h-22v6.35H56.05a6,6,0,0,1,6,6v33a6,6,0,0,1-6,6h-33a6,6,0,0,1-6-6v-33a6,6,0,0,1,6-6h1.53V37.11H20.79A10.05,10.05,0,0,0,10.73,47.17V84.73a10.05,10.05,0,0,0,10.06,10H58.35a10.05,10.05,0,0,0,10.05-10V47.17A10.05,10.05,0,0,0,58.35,37.11Z"/><path class="cls-1" d="M74.91,17.42H37.34a10.05,10.05,0,0,0-10.05,10V65A10.06,10.06,0,0,0,37.34,75.09H59.27V68.74H39.65a6,6,0,0,1-6-6v-33a6,6,0,0,1,6-6H72.6a6,6,0,0,1,6,6v33a6,6,0,0,1-6,6H71v6.35h3.91A10.06,10.06,0,0,0,85,65V27.47A10.05,10.05,0,0,0,74.91,17.42Z"/><path class="cls-2" d="M105,41.92v22.8h-5.2V15.9h8.53c7.34,0,11,3.16,11,11.23v2.23c0,6.64-2.33,9.35-5,10.28,3.09,1.15,4.54,3.48,4.54,10,0,4.17-.08,12,.47,15.06h-5.06c-.62-3-.51-11.25-.51-14.67,0-6.33-.89-8.13-5.73-8.13Zm0-4.41h3.19c4.64,0,5.85-2.68,5.85-7.9V27.44c0-4.46-1.21-7.13-6.1-7.13H105Z"/><path class="cls-2" d="M145.84,41.08h-11V59.94h12.43l-.71,4.78H129.69V15.9h16.77v4.81H134.89V36.3h11Z"/><path class="cls-2" d="M155.81,15.9h8.86c10.55,0,11.88,6.51,11.88,14.27V49.45c0,7.5-1.15,15.27-12.2,15.27h-8.54ZM161,60.21H164c5.92,0,7.3-3.34,7.3-9.74V29.54c0-5.64-1-9.1-7.25-9.1h-3Z"/><path class="cls-2" d="M191.31,64.72,184.5,15.9H190C191.55,27.77,194,48.3,194.39,56h.11c.68-7.85,4-28.53,5.63-40.09h5.3C207.1,27.54,210.38,47,211,55.74h.19c.55-8.35,3.16-27.91,4.66-39.84h5.31l-7.4,48.82h-5.63c-1.6-11.42-4.6-30.73-5.46-38.81h-.1c-1,8.8-3.95,27.51-5.66,38.81Z"/><path class="cls-2" d="M250.32,27.89v24.6c0,8.58-3.54,12.88-10.81,12.88-7.56,0-10.33-4.82-10.33-12.81V27.9c0-8.3,3.78-12.66,10.68-12.66C247.08,15.24,250.32,20.18,250.32,27.89Zm-15.83-.24V53c0,5.48,2,7.67,5.27,7.67,3.45,0,5.26-2.12,5.26-7.91V27.66c0-5.19-1.78-7.67-5.3-7.67S234.49,22.33,234.49,27.65Z"/><path class="cls-2" d="M281,27.89v24.6c0,8.58-3.53,12.88-10.81,12.88-7.56,0-10.32-4.82-10.32-12.81V27.9c0-8.3,3.77-12.66,10.68-12.66C277.77,15.24,281,20.18,281,27.89Zm-15.83-.24V53c0,5.48,2,7.67,5.27,7.67,3.45,0,5.26-2.12,5.26-7.91V27.66c0-5.19-1.78-7.67-5.3-7.67S265.18,22.33,265.18,27.65Z"/><path class="cls-2" d="M291.68,15.9h8.85c10.55,0,11.88,6.51,11.88,14.27V49.45c0,7.5-1.15,15.27-12.2,15.27h-8.53Zm5.19,44.31h2.94c5.92,0,7.3-3.34,7.3-9.74V29.54c0-5.64-1-9.1-7.25-9.1h-3Z"/><path class="cls-2" d="M323.1,15.9H332c7.26,0,10.71,3.67,10.71,11.56v3c0,7.34-2.19,12.75-11.07,12.75H328.3V64.72h-5.2Zm5.2,22.91h2.9c5.54,0,6.34-3.4,6.34-8.48V27.72c0-4-.86-7.41-5.89-7.41H328.3Z"/><path class="cls-2" d="M357.53,15.9V64.72h-5.19V15.9Z"/><path class="cls-2" d="M385.26,41.08H374.31V59.94h12.43L386,64.72H369.11V15.9h16.77v4.81H374.31V36.3h10.95Z"/><path class="cls-2" d="M400.43,41.92v22.8h-5.19V15.9h8.53c7.33,0,10.94,3.16,10.94,11.23v2.23c0,6.64-2.33,9.35-5,10.28,3.1,1.15,4.54,3.48,4.54,10,0,4.17-.08,12,.48,15.06h-5.07c-.61-3-.51-11.25-.51-14.67,0-6.33-.89-8.13-5.73-8.13Zm0-4.41h3.19c4.64,0,5.85-2.68,5.85-7.9V27.44c0-4.46-1.21-7.13-6.1-7.13h-2.94Z"/><path class="cls-3" d="M102.85,86.83v1c0,1.72.59,2.63,1.86,2.63s1.82-.94,1.82-2.93c0-2.14-.47-3-2.38-4.46s-2.94-2.44-2.94-5.12c0-2.31.69-4.52,3.55-4.51,2.71,0,3.42,1.82,3.42,4.13v.85h-1.92v-.79c0-1.52-.29-2.49-1.54-2.49s-1.57,1.09-1.57,2.52c0,1.69.34,2.33,2,3.6,2.53,1.91,3.33,3,3.33,6,0,2.55-.73,4.89-3.8,4.89s-3.77-1.93-3.77-4.33v-1Z"/><path class="cls-3" d="M125.64,88.2c0,1.8,0,3.09,0,3.75h-1.85a12.83,12.83,0,0,1-.08-1.44,2.3,2.3,0,0,1-2.49,1.66c-1.14,0-2.7-.44-2.7-3.54V78.08h1.94v10c0,1.65.44,2.29,1.47,2.29s1.75-.58,1.75-3.23v-9.1h1.93Z"/><path class="cls-3" d="M138.3,90.82v5.82h-1.93V82.08c0-1.89,0-3.13,0-4h1.85c0,.29.07.84.07,1.48a2.49,2.49,0,0,1,2.52-1.7c1.9,0,2.82,1.28,2.82,4v5.89c0,3.07-1.18,4.4-3,4.4A2.27,2.27,0,0,1,138.3,90.82Zm3.35-3V82c0-1.68-.61-2.32-1.5-2.32-1.45,0-1.86,1.21-1.86,3v4.54c0,1.62.23,3.21,1.73,3.21C141.2,90.4,141.65,89.46,141.65,87.81Z"/><path class="cls-3" d="M155.89,90.82v5.82H154V82.08c0-1.89,0-3.13,0-4h1.85a12.07,12.07,0,0,1,.08,1.48,2.47,2.47,0,0,1,2.51-1.7c1.9,0,2.82,1.28,2.82,4v5.89c0,3.07-1.18,4.4-3,4.4A2.24,2.24,0,0,1,155.89,90.82Zm3.34-3V82c0-1.68-.61-2.32-1.5-2.32-1.45,0-1.86,1.21-1.86,3v4.54c0,1.62.23,3.21,1.74,3.21C158.78,90.4,159.23,89.46,159.23,87.81Z"/><path class="cls-3" d="M171.53,92v-19h1.94V92Z"/><path class="cls-3" d="M185.29,78.08c.92,5,1.79,9.84,1.92,11.45h0c.28-2.24,1.2-6.69,2-11.45h1.95L188.17,92.7c-.83,3.86-2,4.13-3.51,4.13a6.13,6.13,0,0,1-1-.11l0-1.78a4,4,0,0,0,.77.09c1,0,1.44-.44,1.82-2.56l-3-14.39Z"/><path class="cls-3" d="M219.78,86.73v.62c0,2.31-.42,4.85-3.71,4.85s-3.69-2.24-3.69-4.91V78c0-2.92,1.25-4.52,3.71-4.52,3.06,0,3.61,2.17,3.61,4.55v.71h-2v-.85c0-1.45-.23-2.65-1.67-2.65s-1.71,1.08-1.71,2.69v9.45c0,1.83.4,3,1.77,3s1.68-1.23,1.68-3v-.76Z"/><path class="cls-3" d="M231.91,72.94v6.39a2.58,2.58,0,0,1,2.54-1.47c2.08,0,2.7,1.56,2.7,3.56V92h-1.94v-10c0-1.15-.16-2.27-1.47-2.27-1.48,0-1.83,1.13-1.83,3.15V92H230v-19Z"/><path class="cls-3" d="M254.16,89.55c0,1,0,2,.06,2.4h-1.8c-.07-.33-.13-.89-.15-1.12A2.23,2.23,0,0,1,250,92.17c-2,0-2.8-1.78-2.8-3.92V88c0-3.14,2-4.25,4.42-4.25h.6v-2.2c0-1.25-.21-2-1.3-2s-1.37.82-1.37,1.91v.37h-1.91v-.35c0-1.93.76-3.58,3.35-3.58,2.42,0,3.17,1.52,3.17,3.56Zm-1.9-4.25h-.67c-1.57,0-2.51.66-2.51,2.66v.24c0,1.24.38,2.23,1.47,2.23,1.27,0,1.71-1,1.71-3.09Z"/><path class="cls-3" d="M264.92,78.08h1.94V92h-1.94Zm0-5.14h1.94v2.82h-1.94Z"/><path class="cls-3" d="M277.59,82.3c0-2.78,0-3.53,0-4.22h1.84a11.15,11.15,0,0,1,.08,1.39A2.5,2.5,0,0,1,282,77.86c1.52,0,2.74.87,2.74,3.42V92h-1.94V81.66c0-1.35-.45-2-1.45-2-1.17,0-1.85.57-1.85,3.2V92h-1.94Z"/><path class="cls-3" d="M307.36,82.08c0-2.52,0-3.33,0-4h1.85a9,9,0,0,1,.08,1.3,2.4,2.4,0,0,1,2.37-1.52,2,2,0,0,1,2.16,1.6,2.66,2.66,0,0,1,2.56-1.6c1.35,0,2.61.61,2.61,3.29V92H317V81.54c0-1.08-.21-1.9-1.29-1.9-1.3,0-1.6,1.15-1.6,2.65V92h-1.94V81.66c0-1.5-.39-2-1.33-2-1.27,0-1.56,1.18-1.56,2.76V92h-1.94Z"/><path class="cls-3" d="M336,89.55c0,1,0,2,0,2.4h-1.8a9,9,0,0,1-.14-1.12,2.24,2.24,0,0,1-2.27,1.34c-2,0-2.8-1.78-2.8-3.92V88c0-3.14,1.94-4.25,4.42-4.25h.6v-2.2c0-1.25-.22-2-1.3-2s-1.38.82-1.38,1.91v.37h-1.91v-.35c0-1.93.76-3.58,3.35-3.58,2.42,0,3.18,1.52,3.18,3.56Zm-1.9-4.25h-.68c-1.57,0-2.51.66-2.51,2.66v.24c0,1.24.39,2.23,1.47,2.23,1.28,0,1.72-1,1.72-3.09Z"/><path class="cls-3" d="M345.36,78.08H347V74.67h1.92v3.41h2V79.8h-2v9.31c0,.72.13,1.4,1,1.4a4.42,4.42,0,0,0,.86-.08v1.5a4.36,4.36,0,0,1-1.5.21c-1.34,0-2.29-.56-2.29-2.67V79.8h-1.59Z"/><path class="cls-3" d="M358.77,78.08h1.59V74.67h1.93v3.41h1.95V79.8h-1.95v9.31c0,.72.12,1.4,1,1.4a4.6,4.6,0,0,0,.87-.08v1.5a4.45,4.45,0,0,1-1.51.21c-1.34,0-2.29-.56-2.29-2.67V79.8h-1.59Z"/><path class="cls-3" d="M375.32,85.42v2.26c0,1.38.28,2.82,1.65,2.82s1.55-1.07,1.55-2.4V88h1.9v.1c0,1.61-.37,4.08-3.45,4.08-2.89,0-3.55-1.9-3.55-4.72V82.29c0-2.11.74-4.43,3.59-4.43,2.67,0,3.45,2,3.45,4.43v3.13Zm3.27-1.59V82.1c0-1.3-.21-2.57-1.6-2.57s-1.65,1.08-1.65,2.58v1.72Z"/><path class="cls-3" d="M390.69,82.8c0-2.24,0-3.49,0-4.72h1.85c0,.36.07,1.24.07,2.17a3,3,0,0,1,2.92-2.36v2.39c-1.71,0-2.87,1-2.87,3.51V92h-1.94Z"/><path class="cls-3" d="M406.54,87.83v.61c0,1.34.53,2.06,1.53,2.06s1.47-.66,1.47-1.94-.4-2-2-3c-1.86-1.23-2.72-2.2-2.72-4.13s1-3.55,3.26-3.55c2.45,0,3.21,1.56,3.21,3.65v.64h-1.88v-.77c0-1.18-.35-1.85-1.35-1.85s-1.3.64-1.3,1.71.33,1.56,1.72,2.48c2,1.34,3,2.3,3,4.59,0,2.52-1.13,3.86-3.52,3.86-2.71,0-3.41-1.8-3.41-3.71v-.63Z"/></svg>